<?xml version="1.0" standalone="no"?>
<!DOCTYPE svg PUBLIC "-//W3C//DTD SVG 20010904//EN"
 "http://www.w3.org/TR/2001/REC-SVG-20010904/DTD/svg10.dtd">
<svg version="1.0" xmlns="http://www.w3.org/2000/svg"
 width="525.000000pt" height="475.000000pt" viewBox="0 0 525.000000 475.000000"
 preserveAspectRatio="xMidYMid meet">

<g transform="translate(0.000000,475.000000) scale(0.100000,-0.100000)"
fill="#000000" stroke="none">
<path d="M2200 3366 c0 -22 62 -82 105 -102 65 -31 126 -31 190 0 49 23 105
75 105 97 0 7 -9 0 -21 -15 -29 -37 -98 -75 -150 -82 -67 -9 -124 11 -180 63
-27 25 -49 43 -49 39z"/>
<path d="M1460 2598 c0 -4 19 -28 43 -52 49 -51 128 -80 187 -70 64 12 131 55
158 103 10 17 1 13 -35 -18 -100 -84 -219 -83 -308 3 -25 23 -45 39 -45 34z"/>
<path d="M3307 2355 c-172 -262 -436 -492 -732 -636 -231 -112 -483 -179 -757
-201 -184 -15 -200 -34 -20 -25 409 21 815 173 1122 421 58 47 211 195 245
236 82 102 115 145 153 203 24 38 42 70 40 72 -2 2 -25 -29 -51 -70z"/>
</g>
</svg>
